/* XPM */
static char *arrowvert[]={
"20 20 4 1",
"a c #000000",
"# c #111111",
"b c #333333",
". c #ffffff",
"....................",
".........#..........",
".........a..........",
".........a..........",
".........a..........",
".........a..........",
".........a..........",
".........a..........",
".........a..........",
".........a..........",
".........a..........",
".........a..........",
".........a..........",
".........a..........",
".........a..........",
".........a..........",
".........a..........",
".........a..........",
".........b..........",
"...................."};
