/* XPM */
static char *Bumpeq[]={
"20 20 13 1",
"b c #000000",
"i c #111111",
"c c #222222",
"j c #333333",
"a c #666666",
"g c #777777",
"h c #888888",
"k c #999999",
"d c #aaaaaa",
"e c #cccccc",
"f c #dddddd",
"# c #eeeeee",
". c #ffffff",
"....................",
"....................",
"....................",
"....................",
"....................",
"....................",
".......#abcd........",
".......aa#ecf.......",
"....cbbb#..gbbbh....",
"....................",
"....................",
"....................",
"....ibbi...hbbbh....",
".......gg.fjf.......",
".......#abck........",
"....................",
"....................",
"....................",
"....................",
"...................."};
