/* XPM */
static char *Cap[]={
"20 20 14 1",
"c c #000000",
"j c #111111",
"h c #222222",
"b c #333333",
"f c #444444",
"d c #555555",
"i c #666666",
"a c #777777",
"g c #999999",
"e c #bbbbbb",
"l c #cccccc",
"k c #dddddd",
"# c #eeeeee",
". c #ffffff",
"....................",
"....................",
"....................",
"....................",
"....................",
"......#abccde.......",
".....#bfe.#ghi......",
".....id.....#ba.....",
".....jk.gjhl.kh.....",
".....c..i#lh..c.....",
".....c..j..c..c.....",
".....c..c..c..c.....",
".....c..c..c..c.....",
".....c..c..c..c.....",
".....c..c..c..c.....",
".....c..j..c..c.....",
"....................",
"....................",
"....................",
"...................."};
