/* XPM */
static char *Circ[] = {
/* width height num_colors chars_per_pixel */
"    20    20       34            1",
/* colors */
". c #2b2b2b",
"# c #424242",
"a c #444444",
"b c #454545",
"c c #4a4a4a",
"d c #515151",
"e c #565656",
"f c #575757",
"g c #595959",
"h c #5a5a5a",
"i c #606060",
"j c #616161",
"k c #6b6b6b",
"l c #7a7a7a",
"m c #868686",
"n c #9c9c9c",
"o c #9f9f9f",
"p c #a2a2a2",
"q c #a5a5a5",
"r c #aeaeae",
"s c #bfbfbf",
"t c #c2c2c2",
"u c #c8c8c8",
"v c #d0d0d0",
"w c #d5d5d5",
"x c #d8d8d8",
"y c #dadada",
"z c #dddddd",
"A c #e4e4e4",
"B c #eeeeee",
"C c #f1f1f1",
"D c #f8f8f8",
"E c #fefefe",
"F c #ffffff",
/* pixels */
"EEFEEEEEEEEEEEEEFFFF",
"EFFFEEEEEEEEEEEEFFFF",
"FEFFFEEEEEEEEEEEFFFF",
"FFFFFECmbaaftEEEFFFF",
"FFFFFs#oBEEvjeDEFFFF",
"EEFEx.zEEEEEErhEFFFF",
"EEFFcuEEEEEEEElpFFFF",
"EEEvgEEEEEEEEEBaFFFF",
"EEEnqEEEEEEEEEEdAFFF",
"EEFiwEEEEEEEEEEkyFFF",
"EEEiwEEEEEEEEEEkyFFF",
"EEEnqEEEEEEEEEEdAFFF",
"FEFvgEEEEEEEEEBaFFFF",
"EEFEcuEEEEEEEElpFFFF",
"EEEEx.zEEEEEErhEFFFF",
"EFFEEs#oBEEvjeDEFFFF",
"EEFFEECmbaaftEEEFFFF",
"EEEEEEEEEEEEEEEEFFFF",
"EFEFEEEEEEEEEEEEFFFF",
"EEFFEEEEEEEEEEEEFFFF"
};
