/* XPM */
static char *Delta[] = {
/* width height num_colors chars_per_pixel */
"    20    20       37            1",
/* colors */
". c #000000",
"# c #151515",
"a c #1f1f1f",
"b c #232323",
"c c #333333",
"d c #343434",
"e c #353535",
"f c #393939",
"g c #525252",
"h c #545454",
"i c #5b5b5b",
"j c #6a6a6a",
"k c #6c6c6c",
"l c #6d6d6d",
"m c #939393",
"n c #959595",
"o c #969696",
"p c #9d9d9d",
"q c #a4a4a4",
"r c #a7a7a7",
"s c #b2b2b2",
"t c #b5b5b5",
"u c #c2c2c2",
"v c #c5c5c5",
"w c #cdcdcd",
"x c #cecece",
"y c #cfcfcf",
"z c #d1d1d1",
"A c #d4d4d4",
"B c #d9d9d9",
"C c #f6f6f6",
"D c #f7f7f7",
"E c #fbfbfb",
"F c #fcfcfc",
"G c #fdfdfd",
"H c #fefefe",
"I c #ffffff",
/* pixels */
"IIIIIIIIIIIIIIIIHHHH",
"IIIIIIIIIIIIIIIIHHHH",
"IIIIIIIIIIIIIIIIHHHH",
"IIIIIIIIIIIIIIIIHHHH",
"IIIIIIIIIzuIIIIIHHHH",
"IIHIIIIIIgcIIIIIHHHH",
"IIIIIIIIyl.sIIIIHHHH",
"HIHIIIIIjChcIIIIHHHH",
"IIIIIIIxmIA.sIIIHHHH",
"IIHHIIIjDIHhdIIIHHHH",
"IIIIIIwnIIIt.sIIHHHH",
"IIHHHIkCIIIFfdGIHHHH",
"IIIIIwoIIIIIt.sIHHHH",
"IIHIIiprrrrrq#eEHHHH",
"HIHHBbaaaaaaaaavHHHH",
"IIHIIIIIIIIIIIIIHHHH",
"IIIIIIIIIIIIIIIIHHHH",
"HIHIIIIIIIIIIIIIHHHH",
"IIHIIIIIIIIIIIIIHHHH",
"IIIIIIIIIIIIIIIIHHHH"
};
