/* XPM */
static char *gamma[] = {
/* width height num_colors chars_per_pixel */
"    20    20       33            1",
/* colors */
". c #2f2f2f",
"# c #4d4d4d",
"a c #4e4e4e",
"b c #505050",
"c c #585858",
"d c #5b5b5b",
"e c #5e5e5e",
"f c #636363",
"g c #6b6b6b",
"h c #717171",
"i c #727272",
"j c #737373",
"k c #757575",
"l c #7c7c7c",
"m c #979797",
"n c #999999",
"o c #a0a0a0",
"p c #a3a3a3",
"q c #acacac",
"r c #b0b0b0",
"s c #bfbfbf",
"t c #d9d9d9",
"u c #dbdbdb",
"v c #e5e5e5",
"w c #e6e6e6",
"x c #e9e9e9",
"y c #eaeaea",
"z c #ececec",
"A c #f0f0f0",
"B c #f2f2f2",
"C c #f7f7f7",
"D c #fefefe",
"E c #ffffff",
/* pixels */
"EDEDEDDDDDDDDDDDEEEE",
"DDEDDDDDDDDDDDDDEEEE",
"EEEDEDDDDDDDDDDDEEEE",
"EEEEEDDEDDDDDEDDEEEE",
"EEEEEDDDDDDDDDDDEEEE",
"EDEDEDDm.#ADtqDDEEEE",
"DEEEDDocpkeDhBDDEEEE",
"DDEEDDgDDDfwlDDDEEEE",
"EEEEEDzDDDnjuDDDEEEE",
"EEEEEDDDDDsbDDDDEEEE",
"DEEDEDDDDDrqDDDDEEEE",
"DEEDDDDDDDixDDDDEEEE",
"EEEEEDDDDDaCDDDDEEEE",
"EEEDEDDDDydDDDDDEEEE",
"EEEEEDDDDvoDDDDDEEEE",
"EEEEEDDDDDDDDDDDEEEE",
"DDEDEDDDDDDDDDDDEEEE",
"EEEEDDDDDDDDDDDDEEEE",
"EEEEEDDDDDDDDDDDEEEE",
"EEEEEDDDDDDDDDDDEEEE"
};
