/* XPM */
static char *Lambda[] = {
/* width height num_colors chars_per_pixel */
"    20    20       43            1",
/* colors */
". c #000000",
"# c #020202",
"a c #090909",
"b c #0b0b0b",
"c c #0d0d0d",
"d c #0e0e0e",
"e c #1f1f1f",
"f c #333333",
"g c #3c3c3c",
"h c #414141",
"i c #444444",
"j c #4b4b4b",
"k c #4d4d4d",
"l c #515151",
"m c #555555",
"n c #5a5a5a",
"o c #6e6e6e",
"p c #747474",
"q c #757575",
"r c #7e7e7e",
"s c #858585",
"t c #8a8a8a",
"u c #8f8f8f",
"v c #949494",
"w c #a4a4a4",
"x c #a5a5a5",
"y c #aaaaaa",
"z c #b3b3b3",
"A c #b4b4b4",
"B c #bfbfbf",
"C c #c0c0c0",
"D c #c6c6c6",
"E c #cdcdcd",
"F c #dfdfdf",
"G c #e2e2e2",
"H c #e4e4e4",
"I c #e7e7e7",
"J c #ececec",
"K c #f0f0f0",
"L c #f6f6f6",
"M c #fdfdfd",
"N c #fefefe",
"O c #ffffff",
/* pixels */
"NNONNNNNNNNNNNNNOOOO",
"NOOONNNNNNNNNNNNOOOO",
"ONOOONNNNNNNNNNNOOOO",
"OOOOONNNNNNNNNNNOOOO",
"OOOOONNNNBHNNNNNOOOO",
"NNONNNNNNktNNNNNOOOO",
"NNOOONNNKcgNNNNNOOOO",
"NNNNNNNNwo#FNNNNOOOO",
"NNNNNNNNpJduNNNNOOOO",
"NNONNNNLrNjhNNNNOOOO",
"NNNNNNNxCNy.GNNNOOOO",
"NNNNNNNqNNJbvNNNOOOO",
"ONOONNMsNNNjmNNNOOOO",
"NNONONzANNNxaLNNOOOO",
"NNNNNDfiINElenHNOOOO",
"NOONNNNNNNNNNNNNOOOO",
"NNOONNNNNNNNNNNNOOOO",
"NNNNNNNNNNNNNNNNOOOO",
"NONONNNNNNNNNNNNOOOO",
"NNOONNNNNNNNNNNNOOOO"
};
