/* XPM */
static char *Leftarrow[] = {
/* width height num_colors chars_per_pixel */
"    20    20       28            1",
/* colors */
". c #292929",
"# c #2e2e2e",
"a c #333333",
"b c #3c3c3c",
"c c #424242",
"d c #434343",
"e c #444444",
"f c #525252",
"g c #5b5b5b",
"h c #5e5e5e",
"i c #5f5f5f",
"j c #828282",
"k c #bcbcbc",
"l c #c5c5c5",
"m c #c8c8c8",
"n c #d0d0d0",
"o c #d2d2d2",
"p c #d5d5d5",
"q c #dbdbdb",
"r c #dfdfdf",
"s c #e0e0e0",
"t c #e2e2e2",
"u c #e3e3e3",
"v c #eaeaea",
"w c #f7f7f7",
"x c #fdfdfd",
"y c #fefefe",
"z c #ffffff",
/* pixels */
"zyzyzyyyyyyyyyyyzzzz",
"yyzyyyyyyyyyyyyyzzzz",
"zzzyzyyyyyyyyyyyzzzz",
"zzzzzyyzyyyyyzyyzzzz",
"zzzzzyyyoyyyyyyyzzzz",
"zyzyzyykgyyyyyyyzzzz",
"yzzzyyueryyyyyyyzzzz",
"yyzzyna#ccccccccuzzz",
"zzzliiqyyyyyyyyyzzzz",
"zzzsjfpyyyyyyyyyzzzz",
"yzzyztd.ccccccccuzzz",
"yzzyyywbtyyyyyyyzzzz",
"zzzzzyymhyyyyyyyzzzz",
"zzzyzyyxvyyyyyyyzzzz",
"zzzzzyyyyyyyyyyyzzzz",
"zzzzzyyyyyyyyyyyzzzz",
"yyzyzyyyyyyyyyyyzzzz",
"zzzzyyyyyyyyyyyyzzzz",
"zzzzzyyyyyyyyyyyzzzz",
"zzzzzyyyyyyyyyyyzzzz"
};
