/* XPM */
static char *Longleftrightarrow[] = {
/* width height num_colors chars_per_pixel */
"    30    20       75            2",
/* colors */
".. c #252525",
".# c #272727",
".a c #282828",
".b c #2b2b2b",
".c c #2d2d2d",
".d c #313131",
".e c #323232",
".f c #383838",
".g c #393939",
".h c #3a3a3a",
".i c #3b3b3b",
".j c #3e3e3e",
".k c #404040",
".l c #414141",
".m c #424242",
".n c #4e4e4e",
".o c #505050",
".p c #515151",
".q c #686868",
".r c #6e6e6e",
".s c #727272",
".t c #787878",
".u c #7a7a7a",
".v c #7c7c7c",
".w c #7f7f7f",
".x c #808080",
".y c #858585",
".z c #868686",
".A c #888888",
".B c #898989",
".C c #8b8b8b",
".D c #8c8c8c",
".E c #919191",
".F c #959595",
".G c #979797",
".H c #999999",
".I c #9d9d9d",
".J c #a4a4a4",
".K c #a6a6a6",
".L c #aeaeae",
".M c #b3b3b3",
".N c #b6b6b6",
".O c #b7b7b7",
".P c #b9b9b9",
".Q c #bbbbbb",
".R c #bdbdbd",
".S c #cacaca",
".T c #d0d0d0",
".U c #d1d1d1",
".V c #d2d2d2",
".W c #d4d4d4",
".X c #d7d7d7",
".Y c #d8d8d8",
".Z c #dcdcdc",
".0 c #dddddd",
".1 c #e1e1e1",
".2 c #e8e8e8",
".3 c #e9e9e9",
".4 c #eaeaea",
".5 c #ececec",
".6 c #ededed",
".7 c #eeeeee",
".8 c #efefef",
".9 c #f0f0f0",
"#. c #f1f1f1",
"## c #f3f3f3",
"#a c #f5f5f5",
"#b c #f7f7f7",
"#c c #f8f8f8",
"#d c #f9f9f9",
"#e c #fafafa",
"#f c #fbfbfb",
"#g c #fdfdfd",
"#h c #fefefe",
"#i c #ffffff",
/* pixels */
"#h#h#i#h#h#h#h#g#h#h#h#h#g#g#g#g#g#g#g#g#g#g#h#h#h#i#i#i#i#i",
"#g#h#i#h#g#g#g#g#h#h#h#h#g#g#g#g#g#g#g#g#g#g#h#h#h#i#i#i#i#i",
"#i#i#i#h#h#h#h#g#h#h#h#h#g#g#g#g#g#g#g#g#g#g#h#h#h#i#i#i#i#i",
"#i#i#i#i#h#h#h#g#h#h#h#h#g#g#g#g#g#g#h#h#g#g#h#h#h#i#i#i#i#i",
"#i#i#i#i#h#h#h#g#e.1.Z#h#g#g#g#g#b.W.9#g#g#g#h#h#h#i#i#i#i#i",
"#h#h#i#h#h#h#h.8.K.D.F#h#g#g#g#g.0.f.L.5#g#g#h#h#h#i#i#i#i#i",
"#h#i#i#i#h#g.7.S.h.N#a#h#g#g#g#g.8.J.t.v#g#g#h#h#h#i#i#i#i#i",
"#g#h#i#i#f.2.r.d.c.i.m.m.l.l.l.l.l.l.#.b.w.U#e#h#h#i#i#i#i#i",
"#i#i#i.P.z.e.G.V#h#h#h#h#g#g#g#g#g#g#g.3.x.o.n.Q.2#i#i#i#i#i",
"#i#i#i.S.I.k.C.R#h#h#h#h#g#g#g#g#g#g#c.1.u.q.s.T.8#i#i#i#i#i",
"#h#i#i#h#f.9.D.p.a.g.m.m.l.l.l.l.l.l...b.B.X#h#h#h#i#i#i#i#i",
"#h#i#i#h#g#g#d.Y.j.L.4#h#g#g#g#g.6.H.y.E#g#g#h#h#h#i#i#i#i#i",
"#i#i#i#i#h#h#h#..M.A.C#h#g#g#g#g.0.f.O#c#g#g#h#h#h#i#i#i#i#i",
"#i#i#i#h#h#h#h#g#h###.#h#g#g#g#g#f.7#d#g#g#g#h#h#h#i#i#i#i#i",
"#i#i#i#i#h#h#h#g#h#h#h#h#g#g#g#g#g#g#g#g#g#g#h#h#h#i#i#i#i#i",
"#i#i#i#i#h#h#h#g#h#h#h#h#g#g#g#g#g#g#g#g#g#g#h#h#h#i#i#i#i#i",
"#g#h#i#h#h#h#h#g#h#h#h#h#g#g#g#g#g#g#g#g#g#g#h#h#h#i#i#i#i#i",
"#i#i#i#i#h#g#g#g#h#h#h#h#g#g#g#g#g#g#g#g#g#g#h#h#h#i#i#i#i#i",
"#i#i#i#i#h#h#h#g#h#h#h#h#g#g#g#g#g#g#g#g#g#g#h#h#h#i#i#i#i#i",
"#i#i#i#i#h#h#h#g#h#h#h#h#g#g#g#g#g#g#g#g#g#g#h#h#h#i#i#i#i#i"
};
