/* XPM */
static char *Mapsto[] = {
/* width height num_colors chars_per_pixel */
"    10    10       12            1",
/* colors */
". c #ffffff s background",
"# c #000000",
"a c #dddddd",
"b c #cccccc",
"c c #aaaaaa",
"d c #888888",
"e c #777777",
"f c #555555",
"g c #444444",
"h c #333333",
"i c #222222",
"j c #111111",
/* pixels */
"..........",
"b....e....",
"f....ec...",
"ffffff#b..",
"f.....ahd.",
"f.......if",
"f.....ahd.",
"ffffff#b..",
"f....ec...",
"b....e...."
};
