/* XPM */
static char *Mapsfrom[] = {
/* width height num_colors chars_per_pixel */
"    10    10       12            1",
/* colors */
". c #ffffff s background",
"# c #000000",
"a c #dddddd",
"b c #cccccc",
"c c #aaaaaa",
"d c #888888",
"e c #777777",
"f c #555555",
"g c #444444",
"h c #333333",
"i c #222222",
"j c #111111",
/* pixels */
"..........",
"....b....f",
"...dd....f",
"..eiffffff",
"afe......f",
"ie.......f",
"afe......f",
"..eiffffff",
"...fb....f",
"...ad....f",
};	  
