/* XPM */
static char *nleftarrow[]={
"20 20 13 1",
"i c #000000",
"k c #333333",
"h c #555555",
"b c #666666",
"d c #777777",
"a c #888888",
"c c #999999",
"e c #aaaaaa",
"f c #bbbbbb",
"g c #cccccc",
"# c #dddddd",
"j c #eeeeee",
". c #ffffff",
"....................",
"....................",
"....................",
"....................",
"....................",
"....................",
"....................",
"....#a.....a........",
"....bc....cd........",
"...ef....gh.........",
"..hiiiiiiiiiiiiiie..",
"..jbe...fd..........",
"....ke.jkj..........",
"....fh.cf...........",
"....................",
"....................",
"....................",
"....................",
"....................",
"...................."};
