/* XPM */
static char *nLeftrightarrow[]={
"20 20 15 1",
"g c #000000",
"m c #111111",
"i c #222222",
"l c #444444",
"b c #555555",
"d c #666666",
"f c #777777",
"k c #888888",
"c c #999999",
"e c #aaaaaa",
"j c #bbbbbb",
"h c #cccccc",
"a c #dddddd",
"# c #eeeeee",
". c #ffffff",
"....................",
"....................",
"....................",
"....................",
"....................",
".......#...#aa......",
"......#b...ccdc.....",
"......e#...b..f#....",
".....cgggggggggb....",
"....fc....cc...#da..",
"..hij.....b#....#ik.",
"...hbj....l....#bk..",
".....dgggggggggmh...",
"......f#.fh...fh....",
"......ad.l...cf.....",
".......c.e...k#.....",
"....................",
"....................",
"....................",
"...................."};
