/* XPM */
static char *nrightarrow[]={
"20 20 13 1",
"i c #000000",
"h c #111111",
"k c #333333",
"f c #555555",
"c c #777777",
"# c #888888",
"b c #999999",
"a c #aaaaaa",
"g c #bbbbbb",
"e c #cccccc",
"d c #dddddd",
"j c #eeeeee",
". c #ffffff",
"....................",
"....................",
"....................",
"....................",
"....................",
"....................",
"....................",
"...........#..a.....",
"..........bc..cd....",
".........ef....cg...",
"..hiiiiiiiiiiiiiia..",
"........gc.....cg...",
".......jkj....ce....",
".......bg.....#.....",
"....................",
"....................",
"....................",
"....................",
"....................",
"...................."};
