/* XPM */
static char *nvdash[]={
"20 20 12 1",
"c c #000000",
"# c #111111",
"e c #444444",
"h c #555555",
"d c #666666",
"b c #777777",
"g c #888888",
"a c #999999",
"f c #cccccc",
"i c #dddddd",
"j c #eeeeee",
". c #ffffff",
"....................",
"....................",
"....................",
"....................",
"......#......ab.....",
"......c.....ad......",
"......c....ad.......",
"......c...ad........",
"......c..ad.........",
"......ccccccccb.....",
"......c.ef..........",
"......cag...........",
"......ch............",
".....fci............",
"....fec.............",
"....hj#.............",
"....................",
"....................",
"....................",
"...................."};
