/* XPM */
static char *nvDash[]={
"20 20 10 1",
"c c #000000",
"# c #111111",
"f c #444444",
"e c #555555",
"b c #777777",
"a c #999999",
"h c #bbbbbb",
"d c #cccccc",
"g c #eeeeee",
". c #ffffff",
"....................",
"....................",
"....................",
"....................",
"......#......ab.....",
"......c.....de......",
"......c....dfg......",
"......c...gfg.......",
"......ccccccccb.....",
"......c..ba.........",
"......cgbh..........",
"......ccccccccb.....",
"......ce............",
".....dcg............",
"....dfc.............",
"....eg#.............",
"....................",
"....................",
"....................",
"...................."};
