/* XPM */
static char *nVdash[]={
"20 20 13 1",
"c c #000000",
"# c #111111",
"k c #444444",
"j c #555555",
"d c #666666",
"a c #777777",
"g c #888888",
"e c #999999",
"b c #aaaaaa",
"f c #cccccc",
"h c #dddddd",
"i c #eeeeee",
". c #ffffff",
"....................",
"....................",
"....................",
"....................",
".....#..#.....ab....",
".....c..c....de.....",
".....c..c...af......",
".....c..c..gh.......",
".....c..c.ei........",
".....c..cjcccccg....",
".....c.fch..........",
".....cidc...........",
".....cafc...........",
"....ice.c...........",
"...ikc..c...........",
"...kf#..#...........",
"....................",
"....................",
"....................",
"...................."};
