/* XPM */
static char *Omega[] = {
/* width height num_colors chars_per_pixel */
"    20    20       64            1",
/* colors */
". c #000000",
"# c #010101",
"a c #020202",
"b c #030303",
"c c #0d0d0d",
"d c #0f0f0f",
"e c #111111",
"f c #121212",
"g c #161616",
"h c #1c1c1c",
"i c #1d1d1d",
"j c #383838",
"k c #434343",
"l c #484848",
"m c #535353",
"n c #575757",
"o c #595959",
"p c #5a5a5a",
"q c #606060",
"r c #6c6c6c",
"s c #7a7a7a",
"t c #7b7b7b",
"u c #8a8a8a",
"v c #919191",
"w c #949494",
"x c #959595",
"y c #9d9d9d",
"z c #a1a1a1",
"A c #a5a5a5",
"B c #aaaaaa",
"C c #adadad",
"D c #b0b0b0",
"E c #bababa",
"F c #c3c3c3",
"G c #c4c4c4",
"H c #c5c5c5",
"I c #c7c7c7",
"J c #c9c9c9",
"K c #cbcbcb",
"L c #cdcdcd",
"M c #cfcfcf",
"N c #d0d0d0",
"O c #d1d1d1",
"P c #d9d9d9",
"Q c #dadada",
"R c #dcdcdc",
"S c #dedede",
"T c #dfdfdf",
"U c #e5e5e5",
"V c #e9e9e9",
"W c #ebebeb",
"X c #ececec",
"Y c #eeeeee",
"Z c #efefef",
"0 c #f0f0f0",
"1 c #f2f2f2",
"2 c #f4f4f4",
"3 c #f5f5f5",
"4 c #f8f8f8",
"5 c #fafafa",
"6 c #fbfbfb",
"7 c #fcfcfc",
"8 c #fefefe",
"9 c #ffffff",
/* pixels */
"98989888888888889999",
"88988888888888889999",
"99989888888888889999",
"99999889888889889999",
"99999885KDDQ88889999",
"989898OjsMHpoU889999",
"89998Xiv8888ml889999",
"88998wa38888E.N89999",
"99999ub88888G.I89999",
"99999z#V8888CaR89999",
"899894hy8888qm889999",
"899888Bj888WgT889999",
"99999L7kS88At1P89999",
"99989uYJx88r1DI89999",
"99999Fcen88ifd589999",
"999996ZZ2880ZZ889999",
"88989888888888889999",
"99998888888888889999",
"99999888888888889999",
"99999888888888889999"
};
