/* XPM */
static char *Phi[] = {
/* width height num_colors chars_per_pixel */
"    20    20       50            1",
/* colors */
". c #000000",
"# c #010101",
"a c #020202",
"b c #030303",
"c c #181818",
"d c #272727",
"e c #2d2d2d",
"f c #313131",
"g c #333333",
"h c #373737",
"i c #3a3a3a",
"j c #3c3c3c",
"k c #454545",
"l c #4d4d4d",
"m c #535353",
"n c #545454",
"o c #5e5e5e",
"p c #656565",
"q c #666666",
"r c #6a6a6a",
"s c #6c6c6c",
"t c #7d7d7d",
"u c #7f7f7f",
"v c #808080",
"w c #828282",
"x c #8b8b8b",
"y c #8e8e8e",
"z c #9a9a9a",
"A c #9c9c9c",
"B c #a1a1a1",
"C c #bcbcbc",
"D c #c3c3c3",
"E c #c4c4c4",
"F c #c9c9c9",
"G c #d5d5d5",
"H c #d6d6d6",
"I c #dbdbdb",
"J c #dfdfdf",
"K c #e4e4e4",
"L c #e5e5e5",
"M c #e6e6e6",
"N c #f0f0f0",
"O c #f1f1f1",
"P c #f2f2f2",
"Q c #f6f6f6",
"R c #f9f9f9",
"S c #fcfcfc",
"T c #fdfdfd",
"U c #fefefe",
"V c #ffffff",
/* pixels */
"UUVUUUUUUUUUUUUUVVVV",
"UVVVUUUUUUUUUUUUVVVV",
"VUVVVUUUUUUUUUUUVVVV",
"VVVVVUUUUUUUUUUUVVVV",
"VVVVVUUQJJJJQUUUVVVV",
"UUVUUUUKAdfBKUUUVVVV",
"UUVVVUUUMnnNUUUUVVVV",
"UUUUUUGlvkkqoOUUVVVV",
"UUUUULcCUppUujUUVVVV",
"UUVUUxbUUppUE.FUVVVV",
"UUUUUzaTUppUD#HUVVVV",
"UUUUUPiySppRmsUUVVVV",
"VUVVUUOtrggozUUUVVVV",
"UUVUVUUUUppUUUUUVVVV",
"UUUUUUUItehwIUUUVVVV",
"UVVUUUUUUUUUUUUUVVVV",
"UUVVUUUUUUUUUUUUVVVV",
"UUUUUUUUUUUUUUUUVVVV",
"UVUVUUUUUUUUUUUUVVVV",
"UUVVUUUUUUUUUUUUVVVV"
};
