/* XPM */
static char *Pi[] = {
/* width height num_colors chars_per_pixel */
"    20    20       24            1",
/* colors */
". c #000000",
"# c #1f1f1f",
"a c #2c2c2c",
"b c #2e2e2e",
"c c #424242",
"d c #494949",
"e c #5a5a5a",
"f c #606060",
"g c #696969",
"h c #818181",
"i c #828282",
"j c #8a8a8a",
"k c #a1a1a1",
"l c #a7a7a7",
"m c #bebebe",
"n c #c6c6c6",
"o c #cdcdcd",
"p c #d4d4d4",
"q c #dfdfdf",
"r c #e1e1e1",
"s c #ebebeb",
"t c #f0f0f0",
"u c #fefefe",
"v c #ffffff",
/* pixels */
"uuvuuuuuuuuuuuuuvvvv",
"uvvvuuuuuuuuuuuuvvvv",
"vuvvvuuuuuuuuuuuvvvv",
"vvvvvuuuuuuuuuuuvvvv",
"vvvvvrqqqqqqqqtuvvvv",
"uuvuulcbkkki.gpuvvvv",
"uuvvvuhduuuo.muuvvvv",
"uuuuuuhduuuo.muuvvvv",
"uuuuuuhduuuo.muuvvvv",
"uuvuuuhduuuo.muuvvvv",
"uuuuuuhduuuo.muuvvvv",
"uuuuuuhduuuo.muuvvvv",
"vuvvuuhduuuo.muuvvvv",
"uuvuvuhduuuo.muuvvvv",
"uuuuujcaisof#enuvvvv",
"uvvuuuuuuuuuuuuuvvvv",
"uuvvuuuuuuuuuuuuvvvv",
"uuuuuuuuuuuuuuuuvvvv",
"uvuvuuuuuuuuuuuuvvvv",
"uuvvuuuuuuuuuuuuvvvv"
};
