/* XPM */
static char *Psi[]={
"20 20 15 1",
"a c #000000",
"e c #0c0c0c",
"i c #181818",
"d c #242424",
"b c #303030",
"j c #484848",
"g c #545454",
"h c #606060",
"l c #6c6c6c",
"f c #787878",
"# c #848484",
"m c #909090",
"k c #9c9c9c",
"c c #a8a8a8",
". c #ffffff",
"....................",
"....................",
"....................",
"....................",
"......#aaaaab.......",
"........caa.........",
"....def..aa..gah....",
"....cad..aa..ia.....",
".....ba..aa..aa.....",
".....ba..aa..ai.....",
".....ja..aa.kal.....",
".....#af.aa.ld......",
"......gdcaacdm......",
".......#gaagk.......",
".........aa.........",
"......#aaaaab.......",
"....................",
"....................",
"....................",
"...................."};
