/* XPM */
static char *Sigma[] = {
/* width height num_colors chars_per_pixel */
"    20    20       50            1",
/* colors */
". c #000000",
"# c #010101",
"a c #060606",
"b c #0b0b0b",
"c c #202020",
"d c #222222",
"e c #242424",
"f c #292929",
"g c #2b2b2b",
"h c #383838",
"i c #414141",
"j c #444444",
"k c #464646",
"l c #484848",
"m c #575757",
"n c #595959",
"o c #5e5e5e",
"p c #646464",
"q c #6d6d6d",
"r c #777777",
"s c #868686",
"t c #989898",
"u c #9e9e9e",
"v c #a1a1a1",
"w c #a2a2a2",
"x c #a7a7a7",
"y c #afafaf",
"z c #b8b8b8",
"A c #c7c7c7",
"B c #c8c8c8",
"C c #cecece",
"D c #d9d9d9",
"E c #dadada",
"F c #dddddd",
"G c #dfdfdf",
"H c #e0e0e0",
"I c #e1e1e1",
"J c #e4e4e4",
"K c #e8e8e8",
"L c #eaeaea",
"M c #ebebeb",
"N c #eeeeee",
"O c #f0f0f0",
"P c #f5f5f5",
"Q c #f6f6f6",
"R c #f7f7f7",
"S c #f9f9f9",
"T c #fbfbfb",
"U c #fefefe",
"V c #ffffff",
/* pixels */
"UUVUUUUUUUUUUUUUVVVV",
"UVVVUUUUUUUUUUUUVVVV",
"VUVVVUUUUUUUUUUUVVVV",
"VVVVVUUUUUUUUUUUVVVV",
"VVVVVOGGGGGGGHUUVVVV",
"UUVUUw.pvvvskaUUVVVV",
"UUVVVShdLUUUUmKUVVVV",
"UUUUUUJboUUUUxAUVVVV",
"UUUUUUUu#yUUUMNUVVVV",
"UUVUUUUTicOUUUUUVVVV",
"UUUUUUUUBlRUUUUUVVVV",
"UUUUUUUPnQUUUEIUVVVV",
"VUVVUUSqFUUUUtAUVVVV",
"UUVUVUrCUUUUDgPUVVVV",
"UUUUUzfjjjjjceUUVVVV",
"UVVUUUUUUUUUUUUUVVVV",
"UUVVUUUUUUUUUUUUVVVV",
"UUUUUUUUUUUUUUUUVVVV",
"UVUVUUUUUUUUUUUUVVVV",
"UUVVUUUUUUUUUUUUVVVV"
};
