/* XPM */
static char *Subset[]={
"20 20 13 1",
"c c #000000",
"d c #111111",
"b c #222222",
"f c #333333",
"h c #444444",
"a c #666666",
"j c #777777",
"e c #999999",
"g c #aaaaaa",
"k c #cccccc",
"# c #dddddd",
"i c #eeeeee",
". c #ffffff",
"....................",
"....................",
"....................",
"....................",
"....................",
"......#abcccccd.....",
".....efe#...........",
"....gh.ijfccccd.....",
"....fk.aj...........",
"....c..c............",
"....di.be...........",
"....aj.khcccccd.....",
"....#bk.............",
".....kdjk...........",
"......ijbcccccd.....",
"....................",
"....................",
"....................",
"....................",
"...................."};
