/* XPM */
static char *Supset[]={
"20 20 15 1",
"a c #000000",
"g c #111111",
"k c #222222",
"d c #333333",
"b c #444444",
"l c #555555",
"e c #666666",
"h c #777777",
"f c #888888",
"# c #999999",
"c c #aaaaaa",
"m c #bbbbbb",
"j c #cccccc",
"i c #eeeeee",
". c #ffffff",
"....................",
"....................",
"....................",
"....................",
"....................",
".....#aaaaaab#......",
"............cde.....",
".....faaaagb#.bh....",
"...........iehjk....",
".............a.a....",
"............fbig....",
".....faaaaaaei#l....",
".............jgm....",
"...........i#g#.....",
".....faaaaaalm......",
"....................",
"....................",
"....................",
"....................",
"...................."};
