/* XPM */
static char *Theta[] = {
/* width height num_colors chars_per_pixel */
"    20    20       56            1",
/* colors */
". c #020202",
"# c #030303",
"a c #080808",
"b c #0f0f0f",
"c c #1c1c1c",
"d c #202020",
"e c #212121",
"f c #242424",
"g c #272727",
"h c #2d2d2d",
"i c #303030",
"j c #3e3e3e",
"k c #3f3f3f",
"l c #444444",
"m c #454545",
"n c #484848",
"o c #515151",
"p c #545454",
"q c #5b5b5b",
"r c #737373",
"s c #797979",
"t c #7a7a7a",
"u c #7b7b7b",
"v c #7d7d7d",
"w c #818181",
"x c #828282",
"y c #858585",
"z c #888888",
"A c #8a8a8a",
"B c #8b8b8b",
"C c #919191",
"D c #959595",
"E c #9c9c9c",
"F c #a1a1a1",
"G c #ababab",
"H c #acacac",
"I c #b3b3b3",
"J c #b6b6b6",
"K c #bababa",
"L c #bcbcbc",
"M c #bebebe",
"N c #c7c7c7",
"O c #cbcbcb",
"P c #dcdcdc",
"Q c #dfdfdf",
"R c #e4e4e4",
"S c #e6e6e6",
"T c #e8e8e8",
"U c #ededed",
"V c #f4f4f4",
"W c #f5f5f5",
"X c #fafafa",
"Y c #fcfcfc",
"Z c #fdfdfd",
"0 c #fefefe",
"1 c #ffffff",
/* pixels */
"00100000000000001111",
"01110000000000001111",
"10111000000000001111",
"11111000000000001111",
"1111100ZLFFT00001111",
"001000PnBQNpy0001111",
"00111WdI000XjC001111",
"00000rn00000OaS01111",
"00000evR0000R#E01111",
"00100bJfllllukA01111",
"00000bJnxxxxwkA01111",
"00000it00000Y.G01111",
"10110DhX0000HcV01111",
"001010my000TgK001111",
"000000VsqFzoM0001111",
"01100000UQQY00001111",
"00110000000000001111",
"00000000000000001111",
"01010000000000001111",
"00110000000000001111"
};
