/* XPM */
static char *Upsilon[] = {
/* width height num_colors chars_per_pixel */
"    20    20       40            1",
/* colors */
". c #080808",
"# c #111111",
"a c #1c1c1c",
"b c #242424",
"c c #272727",
"d c #282828",
"e c #313131",
"f c #353535",
"g c #404040",
"h c #424242",
"i c #434343",
"j c #444444",
"k c #464646",
"l c #515151",
"m c #616161",
"n c #696969",
"o c #6e6e6e",
"p c #727272",
"q c #828282",
"r c #8a8a8a",
"s c #9e9e9e",
"t c #a1a1a1",
"u c #a2a2a2",
"v c #a3a3a3",
"w c #a4a4a4",
"x c #aeaeae",
"y c #bababa",
"z c #bdbdbd",
"A c #c7c7c7",
"B c #c9c9c9",
"C c #cfcfcf",
"D c #d2d2d2",
"E c #dddddd",
"F c #eeeeee",
"G c #f4f4f4",
"H c #f6f6f6",
"I c #f8f8f8",
"J c #f9f9f9",
"K c #fefefe",
"L c #ffffff",
/* pixels */
"KKLKKKKKKKKKKKKKLLLL",
"KLLLKKKKKKKKKKKKLLLL",
"LKLLLKKKKKKKKKKKLLLL",
"LLLLLKKKKKKKKKKKLLLL",
"LLLLLIvwJKKCtBKKLLLL",
"KKLKKmidkJy#laDKLLLL",
"KKLLLnKGjsfxKErKLLLL",
"KKKKKHKKAehKKKHKLLLL",
"KKKKKKKKF.pKKKKKLLLL",
"KKLKKKKKKcuKKKKKLLLL",
"KKKKKKKKKcuKKKKKLLLL",
"KKKKKKKKKcuKKKKKLLLL",
"LKLLKKKKKcuKKKKKLLLL",
"KKLKLKKKKcuKKKKKLLLL",
"KKKKKKKzobgqJKKKLLLL",
"KLLKKKKKKKKKKKKKLLLL",
"KKLLKKKKKKKKKKKKLLLL",
"KKKKKKKKKKKKKKKKLLLL",
"KLKLKKKKKKKKKKKKLLLL",
"KKLLKKKKKKKKKKKKLLLL"
};
