/* XPM */
static char *Vdash[]={
"20 20 4 1",
"a c #000000",
"# c #111111",
"b c #888888",
". c #ffffff",
"....................",
"....................",
"....................",
"....................",
"....#..#............",
"....a..a............",
"....a..a............",
"....a..a............",
"....a..a............",
"....a..aaaaaaab.....",
"....a..a............",
"....a..a............",
"....a..a............",
"....a..a............",
"....a..a............",
"....#..#............",
"....................",
"....................",
"....................",
"...................."};
