/* XPM */
static char *vDash[]={
"20 20 4 1",
"a c #000000",
"# c #111111",
"b c #777777",
". c #ffffff",
"....................",
"....................",
"....................",
"....................",
".....#..............",
".....a..............",
".....a..............",
".....a..............",
".....aaaaaaaab......",
".....a..............",
".....a..............",
".....aaaaaaaab......",
".....a..............",
".....a..............",
".....a..............",
".....#..............",
"....................",
"....................",
"....................",
"...................."};
