/* XPM */
static char *noname[] = {
/* width height ncolors chars_per_pixel */
"9 10 6 1",
/* colors */
"` c #555555",
"a c #CCCCCC",
"b c #AAAAAA",
"c c #888888",
". c #ffffff s background",
"e c #DDDDDD",
/* pixels */
"a..a.....",
"`..`.....",
"`..`.....",
"`..`.....",
"`..`.....",
"`..`.....",
"`..`.....",
"`..`.....",
"`..`.....",
"c..c....."
};   
