/* XPM */
static char *Xi[] = {
/* width height num_colors chars_per_pixel */
"    20    20       25            1",
/* colors */
". c #000000",
"# c #060606",
"a c #1f1f1f",
"b c #242424",
"c c #444444",
"d c #4e4e4e",
"e c #686868",
"f c #6f6f6f",
"g c #757575",
"h c #777777",
"i c #8b8b8b",
"j c #bababa",
"k c #c0c0c0",
"l c #c6c6c6",
"m c #cdcdcd",
"n c #d8d8d8",
"o c #d9d9d9",
"p c #dadada",
"q c #dfdfdf",
"r c #e0e0e0",
"s c #e6e6e6",
"t c #e9e9e9",
"u c #ededed",
"v c #fefefe",
"w c #ffffff",
/* pixels */
"vvwvvvvvvvvvvvvvwwww",
"vwwwvvvvvvvvvvvvwwww",
"wvwwwvvvvvvvvvvvwwww",
"wwwwwvvvvvvvvvvvwwww",
"wwwwwvrqqqqqqrvvwwww",
"vvwvvv#......#vvwwww",
"vvwwwmisssssshvvwwww",
"vvvvvutvvvvvvnvvwwww",
"vvvvvvvlvvvvlvvvwwww",
"vvwvvvvdccccdvvvwwww",
"vvvvvvvgkkkkgvvvwwww",
"vvvvvvvvvvvvvvvvwwww",
"wvwwvqovvvvvvjvvwwww",
"vvwvwpfssssssevvwwww",
"vvvvvvbaaaaaabvvwwww",
"vwwvvvvvvvvvvvvvwwww",
"vvwwvvvvvvvvvvvvwwww",
"vvvvvvvvvvvvvvvvwwww",
"vwvwvvvvvvvvvvvvwwww",
"vvwwvvvvvvvvvvvvwwww"
};
